<svg width="287" height="255" viewBox="0 0 287 255" fill="none" xmlns="http://www.w3.org/2000/svg">
<path opacity="0.3" d="M75.2573 156.571C75.2573 156.571 117.921 182.169 145.257 198.571" stroke="#333333" stroke-dasharray="2 2"/>
<line opacity="0.3" x1="145.171" y1="198.314" x2="214.314" y2="156.829" stroke="#333333" stroke-linecap="round" stroke-dasharray="2 2"/>
<line opacity="0.3" x1="75.5" y1="156.5" x2="214.5" y2="156.5" stroke="#333333" stroke-linecap="round" stroke-dasharray="2 2"/>
<line opacity="0.3" x1="74.6005" y1="156.699" x2="144.601" y2="63.6993" stroke="#333333" stroke-dasharray="2 2"/>
<line opacity="0.3" x1="145.399" y1="63.6993" x2="215.399" y2="156.699" stroke="#333333" stroke-dasharray="2 2"/>
<line opacity="0.3" x1="92.4558" y1="151.702" x2="140.702" y2="138.544" stroke="#555555" stroke-width="7" stroke-linecap="round"/>
<line opacity="0.3" x1="200.642" y1="155.347" x2="147.347" y2="139.358" stroke="#555555" stroke-width="7" stroke-linecap="round"/>
<line opacity="0.3" x1="144.5" y1="195.5" x2="144.5" y2="138.5" stroke="#555555" stroke-width="7" stroke-linecap="round"/>
<line opacity="0.3" x1="144.5" y1="68.5" x2="144.5" y2="135.5" stroke="#555555" stroke-width="7" stroke-linecap="round"/>
<circle opacity="0.3" cx="144.5" cy="137.5" r="11.5" fill="black"/>
<line opacity="0.3" x1="144.5" y1="64" x2="144.5" y2="199" stroke="#333333" stroke-dasharray="2 2"/>
<circle opacity="0.3" cx="215" cy="157" r="19" fill="#B1E7AC"/>
<circle opacity="0.3" cx="145" cy="199" r="19" fill="#B1E7AC"/>
<circle opacity="0.3" cx="145" cy="64" r="19" fill="#B1E7AC"/>
<circle opacity="0.3" cx="75" cy="157" r="19" fill="#B1E7AC"/>
<path d="M94.0643 163.238C94.0643 163.238 125.223 195.642 145.188 216.405" stroke="#333333" stroke-dasharray="2 2"/>
<line x1="0.5" y1="-0.5" x2="73.2592" y2="-0.5" transform="matrix(0.693115 -0.720827 0.327116 0.944984 145 216.948)" stroke="#333333" stroke-linecap="round" stroke-dasharray="2 2"/>
<line x1="94.5" y1="163.5" x2="195.5" y2="163.5" stroke="#333333" stroke-linecap="round" stroke-dasharray="2 2"/>
<line y1="-0.5" x2="128.349" y2="-0.5" transform="matrix(0.398316 -0.917248 0.608347 0.793672 93.8764 163.78)" stroke="#333333" stroke-dasharray="2 2"/>
<line y1="-0.5" x2="128.349" y2="-0.5" transform="matrix(0.398316 0.917248 -0.608347 0.793672 145 46.052)" stroke="#333333" stroke-dasharray="2 2"/>
<line x1="3.5" y1="-3.5" x2="52.9989" y2="-3.5" transform="matrix(0.904861 -0.425708 0.154711 0.98796 93.8764 167.578)" stroke="#555555" stroke-width="7" stroke-linecap="round"/>
<line x1="3.5" y1="-3.5" x2="52.9989" y2="-3.5" transform="matrix(-0.904861 -0.425708 0.154711 -0.98796 196.124 159.983)" stroke="#555555" stroke-width="7" stroke-linecap="round"/>
<line x1="144.5" y1="213.5" x2="144.5" y2="139.5" stroke="#555555" stroke-width="7" stroke-linecap="round"/>
<line x1="144.5" y1="50.5" x2="144.5" y2="137.5" stroke="#555555" stroke-width="7" stroke-linecap="round"/>
<circle cx="144.5" cy="137.5" r="11.5" fill="black"/>
<line x1="144.5" y1="46" x2="144.5" y2="217" stroke="#333333" stroke-dasharray="2 2"/>
<circle cx="196" cy="167" r="19" fill="#B1E7AC"/>
<circle cx="145" cy="212" r="19" fill="#B1E7AC"/>
<circle cx="145" cy="41" r="19" fill="#B1E7AC"/>
<circle cx="94" cy="167" r="19" fill="#B1E7AC"/>
<path d="M40 57L34.2265 67L45.7735 67L40 57ZM41 215L41 66L39 66L39 215L41 215Z" fill="black"/>
<path d="M245 183L250.774 173L239.226 173L245 183ZM246 174L246 106L244 106L244 174L246 174Z" fill="#00008B"/>
<path d="M20.2502 142.548C19.9827 142.548 19.8489 142.461 19.8489 142.287C19.8489 142.233 19.8823 142.073 19.9492 141.805C20.0161 141.538 20.0496 141.303 20.0496 141.103C20.0496 140.688 19.9091 140.434 19.6282 140.34C19.3473 140.247 18.6985 140.2 17.6818 140.2H16.6384C16.625 140.227 16.3909 141.15 15.9361 142.969C15.4813 144.788 15.2539 145.725 15.2539 145.778C15.2539 145.832 15.3275 145.858 15.4746 145.858C15.6218 145.858 16.1568 145.872 17.0799 145.898C18.3373 145.898 19.1667 145.885 19.568 145.858C19.9693 145.832 20.3706 145.745 20.7719 145.597C21.4274 145.383 21.9692 145.009 22.3972 144.474C22.8253 143.939 23.3002 143.063 23.8219 141.845C23.9556 141.551 24.0426 141.39 24.0827 141.364C24.1764 141.337 24.2767 141.324 24.3837 141.324C24.6513 141.324 24.785 141.41 24.785 141.584C23.3804 144.982 22.6447 146.714 22.5778 146.781C22.5377 146.808 20.6248 146.821 16.8391 146.821H13.0467C11.6822 146.821 11 146.748 11 146.601C11 146.574 11.0201 146.48 11.0602 146.32C11.1137 146.106 11.1672 145.985 11.2207 145.959C11.2742 145.932 11.4281 145.912 11.6822 145.898C12.0434 145.898 12.4447 145.878 12.8862 145.838C13.0734 145.798 13.2005 145.718 13.2674 145.597C13.2942 145.531 13.769 143.651 14.6921 139.959C15.6151 136.267 16.0833 134.394 16.0966 134.341C16.0966 134.247 16.0699 134.2 16.0164 134.2C15.9094 134.16 15.5549 134.127 14.9529 134.1H14.3309C14.2506 134.02 14.2105 133.966 14.2105 133.939C14.2105 133.913 14.2239 133.799 14.2506 133.598C14.3041 133.371 14.371 133.23 14.4513 133.177H25.5676C25.6612 133.23 25.708 133.304 25.708 133.398C25.708 133.465 25.6211 134.214 25.4472 135.645C25.2733 137.076 25.1796 137.812 25.1663 137.852C25.1395 137.946 25.0057 137.993 24.765 137.993H24.5242C24.4305 137.926 24.3837 137.839 24.3837 137.732L24.4439 137.27C24.484 136.949 24.5041 136.601 24.5041 136.227C24.5041 135.826 24.4573 135.491 24.3636 135.224C24.27 134.956 24.1429 134.749 23.9824 134.602C23.8219 134.454 23.5878 134.347 23.2801 134.281C22.9724 134.214 22.6581 134.167 22.337 134.14C22.016 134.113 21.5879 134.1 21.0528 134.1H20.1098C18.9326 134.113 18.3105 134.133 18.2437 134.16C18.1901 134.187 18.15 134.247 18.1233 134.341C18.1099 134.381 17.9025 135.204 17.5012 136.809C17.0999 138.414 16.8926 139.23 16.8792 139.257C17.1869 139.27 17.5079 139.277 17.8423 139.277H18.3641C19.2469 139.277 19.8556 139.177 20.19 138.976C20.5244 138.775 20.8254 138.233 21.093 137.351C21.1465 137.137 21.1866 137.016 21.2134 136.989C21.2401 136.963 21.3538 136.943 21.5545 136.929C21.6214 136.929 21.6749 136.929 21.715 136.929C21.7551 136.929 21.7886 136.936 21.8153 136.949C21.8421 136.963 21.8555 136.969 21.8555 136.969C21.8555 136.969 21.8688 136.996 21.8956 137.05C21.9223 137.103 21.9424 137.13 21.9558 137.13L21.2936 139.778C20.8522 141.558 20.6114 142.461 20.5713 142.487C20.5311 142.527 20.4241 142.548 20.2502 142.548Z" fill="black"/>
<path d="M22.0019 128.401C22.0019 128.294 22.0354 128.201 22.1022 128.12C22.1691 128.04 22.2694 128 22.4032 128C22.4969 128 22.5771 128.033 22.644 128.1C22.7109 128.154 22.7778 128.281 22.8447 128.482C22.9784 128.977 23.2527 129.358 23.6673 129.625C23.8145 129.719 23.8881 129.839 23.8881 129.986C23.8881 130.107 23.868 130.187 23.8279 130.227C23.7877 130.267 23.6941 130.328 23.547 130.408C22.9717 130.702 22.4701 131.124 22.042 131.672C22.0153 131.699 21.9818 131.739 21.9417 131.792C21.9016 131.846 21.8681 131.886 21.8414 131.913C21.8146 131.94 21.7812 131.953 21.7411 131.953C21.7009 131.953 21.6541 131.96 21.6006 131.973C21.507 131.973 21.42 131.94 21.3397 131.873C21.2595 131.806 21.2127 131.705 21.1993 131.572C21.1993 131.317 21.5136 130.923 22.1424 130.388H18.7112L15.28 130.368C15.1061 130.247 15.0191 130.12 15.0191 129.986C15.0191 129.893 15.1061 129.759 15.28 129.585H22.4835C22.1624 129.077 22.0019 128.682 22.0019 128.401Z" fill="black"/>
<path d="M261.929 120.553C261.929 120.455 261.532 120.393 260.736 120.365C260.401 120.365 260.185 120.358 260.087 120.344C259.989 120.33 259.94 120.26 259.94 120.134C259.94 120.121 259.954 120.044 259.982 119.904C260.066 119.625 260.129 119.471 260.171 119.444C260.213 119.416 261.567 119.402 264.232 119.402C266.884 119.416 268.301 119.437 268.483 119.464C269.376 119.618 270.123 119.96 270.723 120.49C271.323 121.021 271.63 121.726 271.644 122.605C271.644 123.68 271.183 124.664 270.262 125.557C269.299 126.506 268.057 127.106 266.535 127.358C266.438 127.372 265.705 127.386 264.337 127.399H262.348L261.72 129.891C261.301 131.51 261.092 132.368 261.092 132.466C261.092 132.522 261.099 132.557 261.113 132.571C261.127 132.585 261.176 132.613 261.259 132.655C261.343 132.696 261.462 132.71 261.615 132.696C261.769 132.682 261.999 132.696 262.306 132.738H262.955C263.039 132.864 263.081 132.941 263.081 132.969C263.081 133.192 263.032 133.401 262.934 133.597C262.865 133.667 262.753 133.701 262.599 133.701C262.558 133.701 262.299 133.694 261.825 133.68C261.35 133.667 260.652 133.66 259.731 133.66C258.866 133.66 258.203 133.66 257.742 133.66C257.281 133.66 257.03 133.667 256.988 133.68C256.737 133.68 256.612 133.611 256.612 133.471C256.612 133.443 256.632 133.345 256.674 133.178C256.73 132.955 256.786 132.829 256.842 132.801C256.898 132.773 257.058 132.752 257.323 132.738C257.7 132.738 258.119 132.717 258.58 132.676C258.775 132.634 258.908 132.55 258.977 132.424C259.019 132.368 259.522 130.428 260.485 126.604C261.448 122.779 261.929 120.763 261.929 120.553ZM269.425 122.103C269.425 121.921 269.411 121.774 269.383 121.663C269.355 121.551 269.292 121.398 269.194 121.202C269.097 121.007 268.922 120.853 268.671 120.742C268.42 120.63 268.078 120.518 267.645 120.407C267.547 120.393 266.989 120.379 265.97 120.365C265.733 120.365 265.489 120.365 265.237 120.365C264.986 120.365 264.784 120.372 264.63 120.386C264.477 120.4 264.393 120.4 264.379 120.386C264.198 120.4 264.072 120.462 264.002 120.574C263.974 120.658 263.842 121.195 263.604 122.186C263.367 123.177 263.123 124.14 262.872 125.076C262.62 126.011 262.495 126.485 262.495 126.499C262.495 126.527 263.06 126.541 264.191 126.541H264.442H264.923C266.487 126.541 267.603 126.192 268.273 125.494C268.65 125.117 268.936 124.566 269.132 123.84C269.327 123.114 269.425 122.535 269.425 122.103Z" fill="black"/>
<path d="M269.896 114.419C269.896 114.307 269.931 114.209 270.001 114.126C270.07 114.042 270.175 114 270.315 114C270.412 114 270.496 114.035 270.566 114.105C270.636 114.16 270.705 114.293 270.775 114.502C270.915 115.019 271.201 115.417 271.634 115.696C271.787 115.794 271.864 115.919 271.864 116.073C271.864 116.198 271.843 116.282 271.801 116.324C271.759 116.366 271.661 116.429 271.508 116.512C270.908 116.819 270.384 117.259 269.938 117.831C269.91 117.859 269.875 117.901 269.833 117.957C269.791 118.013 269.756 118.055 269.728 118.083C269.7 118.11 269.666 118.124 269.624 118.124C269.582 118.124 269.533 118.131 269.477 118.145C269.379 118.145 269.289 118.11 269.205 118.041C269.121 117.971 269.072 117.866 269.058 117.727C269.058 117.461 269.386 117.05 270.042 116.491H266.462L262.882 116.47C262.701 116.345 262.61 116.212 262.61 116.073C262.61 115.975 262.701 115.835 262.882 115.654H270.398C270.063 115.124 269.896 114.712 269.896 114.419Z" fill="black"/>
<path d="M259.072 162.678C258.15 162.678 257.355 162.447 256.685 161.987C256.015 161.526 255.673 160.856 255.659 159.977C255.659 159.042 256.147 158.169 257.124 157.36L257.334 157.213L257.166 157.025C256.845 156.676 256.685 156.285 256.685 155.852C256.685 155.015 257.159 154.289 258.108 153.675C259.058 153.061 260.077 152.754 261.165 152.754H261.416C262.226 152.754 262.945 152.97 263.573 153.403C263.894 153.626 264.054 153.828 264.054 154.01C264.054 154.163 263.978 154.324 263.824 154.491C263.671 154.659 263.489 154.75 263.28 154.764C263.154 154.764 263.015 154.701 262.861 154.575C262.708 154.45 262.477 154.324 262.17 154.198C261.863 154.073 261.479 154.01 261.019 154.01C260.097 154.01 259.288 154.177 258.59 154.512C257.892 154.847 257.536 155.266 257.522 155.769C257.522 156.034 257.641 156.285 257.878 156.522C258.004 156.648 258.088 156.718 258.129 156.732C258.171 156.746 258.255 156.732 258.381 156.69C258.813 156.494 259.379 156.397 260.077 156.397H260.181C261.088 156.397 261.542 156.613 261.542 157.046C261.542 157.618 260.949 157.904 259.762 157.904C259.12 157.904 258.555 157.813 258.067 157.632L257.857 157.779C256.964 158.379 256.517 159.077 256.517 159.872C256.517 160.891 257.445 161.401 259.302 161.401C260.028 161.401 260.621 161.331 261.081 161.191C261.542 161.052 261.835 160.891 261.961 160.71C262.086 160.528 262.205 160.375 262.317 160.249C262.428 160.123 262.547 160.047 262.673 160.019C262.868 160.047 262.966 160.165 262.966 160.375C262.966 160.5 262.889 160.682 262.735 160.919C262.582 161.156 262.366 161.408 262.086 161.673C261.807 161.938 261.396 162.175 260.851 162.385C260.307 162.594 259.714 162.692 259.072 162.678Z" fill="black"/>
<path d="M266.271 156.698C266.824 155.899 267.579 155.499 268.536 155.499C269.01 155.499 269.483 155.628 269.957 155.884C270.431 156.141 270.815 156.595 271.111 157.246C271.477 158.065 271.659 159.19 271.659 160.621C271.659 162.15 271.447 163.32 271.023 164.129C270.825 164.544 270.554 164.874 270.209 165.121C269.863 165.368 269.562 165.52 269.306 165.58C269.049 165.639 268.797 165.673 268.551 165.683C268.294 165.683 268.038 165.654 267.781 165.594C267.524 165.535 267.223 165.377 266.878 165.121C266.533 164.864 266.261 164.534 266.064 164.129C265.64 163.32 265.427 162.15 265.427 160.621C265.427 158.904 265.709 157.596 266.271 156.698ZM269.602 156.521C269.306 156.205 268.955 156.047 268.551 156.047C268.136 156.047 267.781 156.205 267.485 156.521C267.238 156.777 267.075 157.133 266.996 157.586C266.918 158.04 266.878 158.988 266.878 160.429C266.878 161.988 266.918 163.014 266.996 163.507C267.075 164.001 267.253 164.391 267.529 164.677C267.806 164.973 268.146 165.121 268.551 165.121C268.945 165.121 269.281 164.973 269.557 164.677C269.843 164.381 270.021 163.966 270.09 163.433C270.159 162.9 270.199 161.899 270.209 160.429C270.209 158.998 270.169 158.055 270.09 157.601C270.011 157.147 269.848 156.787 269.602 156.521Z" fill="black"/>
<path d="M275.394 143.249H253V141.992H275.394V143.249Z" fill="black"/>
</svg>
